<?xml version="1.0" encoding="utf-8"?>
<!-- Generator: Adobe Illustrator 15.0.0, SVG Export Plug-In . SVG Version: 6.00 Build 0)  -->
<!DOCTYPE svg PUBLIC "-//W3C//DTD SVG 1.1//EN" "http://www.w3.org/Graphics/SVG/1.1/DTD/svg11.dtd">
<svg version="1.1" id="Layer_1" xmlns="http://www.w3.org/2000/svg" xmlns:xlink="http://www.w3.org/1999/xlink" x="0px" y="0px"
	 width="800px" height="200px" viewBox="0 0 800 200" enable-background="new 0 0 800 200" xml:space="preserve">
<g>
	<circle fill="#191919" stroke="#FF8A16" stroke-width="7.438" stroke-miterlimit="10" cx="106.537" cy="99.739" r="94.224"/>
	<g>
		<path fill="#FF8A16" d="M61.102,133.681V66.828c0-1.096,0.244-1.883,0.742-2.366c0.49-0.477,1.304-0.719,2.435-0.719h21.505
			c6.211,0,11.704,1.442,16.471,4.318c4.767,2.881,7.153,8.162,7.153,15.84c0,5.691-1.379,10.114-4.138,13.265
			c-2.75,3.157-5.822,5.265-9.21,6.326c-3.393,1.065-6.465,1.594-9.218,1.594H70.424v28.595c0,1.505-1.417,2.261-4.239,2.261h-0.849
			C62.511,135.941,61.102,135.186,61.102,133.681z M86.946,97.271c3.037,0,5.932-0.991,8.688-2.984
			c2.753-1.987,4.135-5.449,4.135-10.386c0-4.592-1.417-7.799-4.245-9.617c-2.823-1.814-6.176-2.725-10.06-2.725H70.424v25.712
			H86.946z"/>
		<path fill="#FF8A16" d="M107.03,127.457c-5.22-5.93-7.828-15.17-7.828-27.718c0-24.408,10.771-36.613,32.32-36.613
			c3.257,0,6.401,0.36,9.427,1.082c3.026,0.719,5.437,1.594,7.236,2.621c1.594,0.961,2.392,1.852,2.392,2.675
			c0,0.96-0.418,2.196-1.246,3.701c-0.833,1.51-1.551,2.263-2.146,2.263c-0.201,0-1.047-0.427-2.547-1.287
			c-1.494-0.856-3.323-1.609-5.485-2.26c-2.158-0.652-4.638-0.979-7.432-0.979c-8.048,0-13.97,2.299-17.756,6.891
			c-3.792,4.595-5.686,11.931-5.686,22.01c0,9.874,1.877,17.123,5.635,21.75c3.754,4.628,9.561,6.941,17.41,6.941
			c3.254,0,6.048-0.394,8.375-1.181c2.33-0.787,4.625-1.803,6.886-3.036c0.926-0.617,1.564-0.927,1.896-0.927
			c0.598,0,1.331,0.757,2.193,2.265c0.865,1.511,1.296,2.604,1.296,3.289c0,1.028-1.063,2.162-3.189,3.396
			c-1.998,1.169-4.526,2.127-7.582,2.877c-3.061,0.758-6.353,1.136-9.875,1.136C120.349,136.354,112.25,133.389,107.03,127.457z"/>
	</g>
</g>
<text transform="matrix(1 0 0 1 234.5283 135.9414)"><tspan x="0" y="0" fill="#191919" font-family="'Asap-Bold'" font-size="103.3934">Post</tspan><tspan x="195.823" y="0" fill="#191919" font-family="'Asap-Regular'" font-size="103.3934">Capture</tspan></text>
</svg>
